<?xml version="1.0" encoding="UTF-8" standalone="no"?>
<!-- Created with Inkscape (http://www.inkscape.org/) -->

<svg
   xmlns:dc="http://purl.org/dc/elements/1.1/"
   xmlns:cc="http://creativecommons.org/ns#"
   xmlns:rdf="http://www.w3.org/1999/02/22-rdf-syntax-ns#"
   xmlns:svg="http://www.w3.org/2000/svg"
   xmlns="http://www.w3.org/2000/svg"
   xmlns:sodipodi="http://sodipodi.sourceforge.net/DTD/sodipodi-0.dtd"
   xmlns:inkscape="http://www.inkscape.org/namespaces/inkscape"
   width="66.145828mm"
   height="74.877083mm"
   viewBox="0 0 66.145828 74.877083"
   version="1.1"
   id="svg8"
   sodipodi:docname="android.svg"
   inkscape:version="0.92.3 (2405546, 2018-03-11)">
  <defs
     id="defs2" />
  <sodipodi:namedview
     id="base"
     pagecolor="#ffffff"
     bordercolor="#666666"
     borderopacity="1.0"
     inkscape:pageopacity="0.0"
     inkscape:pageshadow="2"
     inkscape:zoom="0.98994949"
     inkscape:cx="-310.14179"
     inkscape:cy="241.74256"
     inkscape:document-units="mm"
     inkscape:current-layer="layer1"
     showgrid="false"
     inkscape:window-width="1920"
     inkscape:window-height="1017"
     inkscape:window-x="1912"
     inkscape:window-y="-8"
     inkscape:window-maximized="1" />
  <metadata
     id="metadata5">
    <rdf:RDF>
      <cc:Work
         rdf:about="">
        <dc:format>image/svg+xml</dc:format>
        <dc:type
           rdf:resource="http://purl.org/dc/dcmitype/StillImage" />
        <dc:title></dc:title>
      </cc:Work>
    </rdf:RDF>
  </metadata>
  <g
     inkscape:label="Layer 1"
     inkscape:groupmode="layer"
     id="layer1"
     transform="translate(-101.41199,-50.602776)">
    <path
       inkscape:connector-curvature="0"
       id="path3763"
       d="M 101.41199,88.041317 V 50.602776 h 33.07292 33.07291 v 37.438541 37.438543 h -33.07291 -33.07292 z"
       style="fill:#fdfdfc;stroke-width:0.26458335" />
    <path
       inkscape:connector-curvature="0"
       id="path3761"
       d="m 120.66599,124.75345 c -1.0785,-0.66878 -1.60298,-2.17633 -1.19147,-3.42467 0.40274,-1.22171 1.85229,-2.28525 2.9057,-2.1319 0.40018,0.0583 0.7276,0.008 0.7276,-0.11284 0,-0.12032 -1.28467,-0.21876 -2.85482,-0.21876 -2.91193,0 -5.46961,-0.46793 -6.59983,-1.20743 -0.76989,-0.50374 -1.00738,-1.51206 -0.59222,-2.51435 0.61186,-1.47716 1.12096,-1.56971 8.64467,-1.57164 6.77841,-0.002 6.82087,-0.005 6.0698,-0.5004 -1.7012,-1.12158 -1.79568,-1.50403 -1.70607,-6.90618 l 0.0812,-4.8948 -1.19062,-0.0671 c -2.93515,-0.1655 -4.50403,-1.0712 -5.00623,-2.890035 -0.17204,-0.623072 -0.13048,-3.514627 0.12613,-8.775628 0.2105,-4.3155 0.48182,-9.900195 0.60295,-12.410435 0.12112,-2.510238 0.27816,-4.622005 0.34897,-4.692815 0.0708,-0.07081 2.62072,-0.0108 5.66648,0.133365 3.04576,0.14416 9.34774,0.437946 14.00441,0.652857 4.65666,0.21491 9.73332,0.467013 11.28145,0.560229 l 2.81478,0.169483 -0.0948,0.960059 c -0.0522,0.528033 -0.28351,5.543965 -0.51411,11.146518 -0.48196,11.709481 -0.66791,13.718444 -1.35523,14.642142 -0.94345,1.26789 -1.89156,1.62302 -4.15691,1.55701 -1.58134,-0.0461 -2.04514,0.0187 -1.93747,0.27065 1.8581,4.34803 2.56128,6.42592 2.56128,7.56858 0,1.48616 -0.65611,2.5272 -1.96193,3.11295 -0.72172,0.32374 -0.17311,0.3583 4.74006,0.29852 5.43002,-0.0661 5.62789,-0.0881 8.7097,-0.96892 2.87328,-0.82124 3.21415,-0.86739 3.83646,-0.51942 0.57632,0.32224 0.69546,0.59627 0.7627,1.75435 0.10471,1.80305 -0.22362,2.33811 -1.90729,3.10824 -2.91703,1.33427 -5.82631,1.98289 -8.98377,2.00292 l -2.94697,0.0187 1.09231,0.48597 c 1.40624,0.62563 1.9504,1.42615 1.9504,2.86928 0,0.9644 -0.15053,1.30874 -0.89958,2.05779 -0.69851,0.69851 -1.11815,0.89958 -1.87741,0.89958 -1.29637,0 -2.4054,-0.69053 -2.94907,-1.83623 -0.40963,-0.86323 -0.41094,-1.02245 -0.0174,-2.11694 0.50036,-1.39143 0.32501,-1.73092 -1.09824,-2.12624 -1.20524,-0.33477 -19.34577,-0.35149 -20.77838,-0.0192 -1.5824,0.36708 -1.8858,0.81933 -1.79389,2.67393 0.0748,1.5088 0.0311,1.63954 -0.83755,2.50821 -0.73274,0.73274 -1.12061,0.91502 -1.93508,0.90939 -0.56026,-0.004 -1.34357,-0.20853 -1.74069,-0.45478 z m 24.00538,-11.61948 c -1.97656,-1.04201 -2.29855,-1.57871 -4.13823,-6.89782 -0.74327,-2.14903 -1.42592,-3.9903 -1.51701,-4.09169 -0.0911,-0.10141 -1.26693,-0.26732 -2.61299,-0.3687 l -2.4474,-0.18433 -0.0195,0.63328 c -0.25973,8.42796 -0.54229,9.83422 -2.17614,10.83044 l -0.84705,0.51648 7.27604,-0.01 c 6.79578,-0.009 7.22365,-0.0372 6.48229,-0.42806 z m 15.27804,-15.06188 c -1.19578,-0.942412 -1.28776,-1.180037 -1.89333,-4.8918 -2.44645,-14.995014 -2.34093,-14.067594 -1.75897,-15.460426 0.82519,-1.974959 4.01701,-2.69951 5.69013,-1.291675 0.45101,0.379498 0.93931,0.91291 1.08512,1.18536 0.28948,0.540898 2.58057,14.20264 2.81648,16.794652 0.17411,1.912993 -0.29339,3.04274 -1.58501,3.830285 -1.26908,0.773808 -3.25786,0.69781 -4.35442,-0.166396 z m -54.06652,-4.41365 c -1.21117,-0.809114 -1.88369,-2.160362 -1.74218,-3.500456 0.0797,-0.75461 1.30379,-3.146433 4.26541,-8.334375 2.28451,-4.001823 4.40134,-7.540477 4.70408,-7.863675 0.30274,-0.323199 0.95741,-0.721947 1.45482,-0.886107 2.72175,-0.898259 5.6169,1.817561 4.82356,4.524791 -0.14791,0.504735 -2.14173,4.188484 -4.43072,8.186111 -3.17279,5.541163 -4.37441,7.411693 -5.0565,7.871354 -1.18913,0.801351 -2.82102,0.802309 -4.01847,0.0024 z m 38.52389,-21.500303 c -3.4925,-0.18113 -9.50515,-0.464689 -13.36146,-0.630131 -3.8563,-0.165442 -7.74673,-0.36592 -8.64539,-0.445507 l -1.63394,-0.144703 0.13034,-0.97324 c 0.25006,-1.867185 1.23986,-4.597174 2.20694,-6.086993 1.31028,-2.018528 3.74316,-4.358509 5.46918,-5.260326 0.7773,-0.40613 1.41357,-0.814623 1.41391,-0.90776 2.6e-4,-0.09314 -0.52457,-1.283763 -1.16648,-2.645834 -0.83329,-1.768159 -1.08958,-2.570255 -0.89606,-2.804308 0.42646,-0.515778 0.70749,-0.172525 1.95164,2.3837 0.64046,1.315897 1.2048,2.432871 1.25409,2.482165 0.0493,0.04929 1.08993,-0.163328 2.31251,-0.472494 3.76183,-0.951288 8.41453,-0.497443 12.15535,1.185687 0.29447,0.132489 0.77298,-0.448256 1.85429,-2.250439 0.80158,-1.335956 1.60518,-2.478268 1.78579,-2.538471 0.8147,-0.271566 0.50909,0.848473 -0.83739,3.069025 l -1.46094,2.409307 1.11506,0.79148 c 4.22847,3.001407 6.8036,7.484408 6.8036,11.844278 v 1.39962 l -2.05052,-0.03787 c -1.12778,-0.02083 -4.90802,-0.186061 -8.40052,-0.367191 z m 2.63619,-6.728033 c 0.98373,-1.087007 -0.36944,-2.844853 -1.65876,-2.154829 -0.77477,0.414643 -0.96768,1.25628 -0.4641,2.024831 0.51615,0.787753 1.47449,0.846439 2.12286,0.129998 z m -15.5214,-0.592745 c 0.17463,-0.174625 0.3175,-0.627062 0.3175,-1.005416 0,-0.874384 -0.44853,-1.322917 -1.32291,-1.322917 -0.87439,0 -1.32292,0.448533 -1.32292,1.322917 0,0.874383 0.44853,1.322916 1.32292,1.322916 0.37835,0 0.83079,-0.142875 1.00541,-0.3175 z"
       style="fill:#a3c338;stroke-width:0.26458335" />
    <path
       inkscape:connector-curvature="0"
       id="path3759"
       d="m 120.66599,124.75345 c -1.0785,-0.66878 -1.60298,-2.17633 -1.19147,-3.42467 0.40274,-1.22171 1.85229,-2.28525 2.9057,-2.1319 0.40018,0.0583 0.7276,0.008 0.7276,-0.11284 0,-0.12032 -1.28467,-0.21876 -2.85482,-0.21876 -4.28402,0 -6.99998,-0.83333 -7.35741,-2.25745 -0.2115,-0.84268 0.32862,-2.16514 1.05425,-2.58131 0.4199,-0.24083 5.92544,-0.35354 22.12257,-0.45291 l 21.56354,-0.13229 3.15345,-0.90238 c 2.87349,-0.82227 3.2141,-0.86848 3.83646,-0.52049 0.57632,0.32225 0.69546,0.59627 0.7627,1.75435 0.10471,1.80306 -0.22362,2.33811 -1.90729,3.10824 -2.91703,1.33428 -5.82631,1.9829 -8.98377,2.00293 l -2.94697,0.0187 1.09231,0.48596 c 1.40624,0.62564 1.9504,1.42616 1.9504,2.86928 0,0.96441 -0.15053,1.30874 -0.89958,2.0578 -0.69851,0.6985 -1.11815,0.89958 -1.87741,0.89958 -1.29637,0 -2.4054,-0.69054 -2.94907,-1.83623 -0.40963,-0.86324 -0.41094,-1.02245 -0.0174,-2.11695 0.50036,-1.39143 0.32501,-1.73091 -1.09824,-2.12623 -1.20524,-0.33477 -19.34577,-0.3515 -20.77838,-0.0191 -1.5824,0.36708 -1.88581,0.81933 -1.79389,2.67393 0.0748,1.5088 0.0311,1.63953 -0.83755,2.5082 -0.73275,0.73275 -1.12061,0.91503 -1.93508,0.9094 -0.56026,-0.004 -1.34357,-0.20853 -1.74069,-0.45479 z"
       style="fill:#7a7a7a;stroke-width:0.26458335" />
  </g>
</svg>
