<svg xmlns="http://www.w3.org/2000/svg" viewBox="0 0 12.8 12.8">
  <defs>
    <style>
      .cls-1 {
        fill: #31373d;
      }
    </style>
  </defs>
  <path id="icon" class="cls-1" d="M12.56,4,8.8.24A.727.727,0,0,0,8.24,0a.537.537,0,0,0-.561.32L4.8,3.76c-2.64.08-3.36,1.52-3.44,1.68a.639.639,0,0,0,.16.88L3.44,8.24l-3.2,3.2a.773.773,0,0,0,0,1.12.726.726,0,0,0,.56.24.726.726,0,0,0,.56-.24l3.2-3.2,1.919,1.92a.729.729,0,0,0,.561.24c.16,0,.239,0,.32-.08.16-.08,1.519-.88,1.68-3.44l3.439-2.88a.535.535,0,0,0,.321-.56A.726.726,0,0,0,12.56,4" transform="translate(0 0)"/>
</svg>
