<svg id="Polaris-icon_Minor_Mono_Cancel_Small" data-name="Polaris-icon/Minor/Mono/Cancel Small" xmlns="http://www.w3.org/2000/svg" xmlns:xlink="http://www.w3.org/1999/xlink" viewBox="0 0 16 16">
  <defs>
    <style>
      .cls-1 {
        fill: #31373d;
      }

      .cls-2 {
        fill: rgba(0,0,0,0);
      }

      .cls-3 {
        clip-path: url(#clip-path);
      }
    </style>
    <clipPath id="clip-path">
      <path id="Icon" class="cls-1" d="M5.931,4.8,9.366,1.366A.8.8,0,0,0,8.235.235L4.8,3.669,1.366.235A.8.8,0,0,0,.235,1.366L3.669,4.8.235,8.235A.8.8,0,1,0,1.366,9.366L4.8,5.931,8.235,9.366A.8.8,0,0,0,9.366,8.235Z"/>
    </clipPath>
  </defs>
  <rect id="Polaris-icon_Minor_Mono_Cancel_Small_background" data-name="Polaris-icon/Minor/Mono/Cancel Small background" class="cls-2" width="16" height="16"/>
  <path id="Icon-2" data-name="Icon" class="cls-1" d="M5.931,4.8,9.366,1.366A.8.8,0,0,0,8.235.235L4.8,3.669,1.366.235A.8.8,0,0,0,.235,1.366L3.669,4.8.235,8.235A.8.8,0,1,0,1.366,9.366L4.8,5.931,8.235,9.366A.8.8,0,0,0,9.366,8.235Z" transform="translate(3.2 3.2)"/>
</svg>
