<svg xmlns="http://www.w3.org/2000/svg" viewBox="0 0 12.8 12.8">
  <defs>
    <style>
      .cls-1 {
        fill: #31373d;
      }
    </style>
  </defs>
  <path id="Icon" class="cls-1" d="M12,1.6H9.6a.8.8,0,1,0,0,1.6h1.6v8H1.6V1.6H4.469L5.6,2.731V6.869L4.566,5.834A.8.8,0,1,0,3.434,6.966l2.4,2.4a.8.8,0,0,0,1.131,0l2.4-2.4A.8.8,0,1,0,8.234,5.834L7.2,6.869V2.4a.8.8,0,0,0-.234-.566l-1.6-1.6A.8.8,0,0,0,4.8,0H.8A.8.8,0,0,0,0,.8V12a.8.8,0,0,0,.8.8H12a.8.8,0,0,0,.8-.8V2.4a.8.8,0,0,0-.8-.8" transform="translate(0 0)"/>
</svg>
