<svg id="Monotone" xmlns="http://www.w3.org/2000/svg" xmlns:xlink="http://www.w3.org/1999/xlink" viewBox="0 0 16 16">
  <defs>
    <style>
      .cls-1 {
        fill: #31373d;
      }

      .cls-2 {
        fill: rgba(0,0,0,0);
      }

      .cls-3 {
        clip-path: url(#clip-path);
      }
    </style>
    <clipPath id="clip-path">
      <path id="Icon" class="cls-1" d="M4.8,5.6a.8.8,0,0,1-.566-.234l-4-4A.8.8,0,0,1,1.366.235L4.8,3.669,8.235.235A.8.8,0,0,1,9.366,1.366l-4,4A.8.8,0,0,1,4.8,5.6"/>
    </clipPath>
  </defs>
  <rect id="Monotone_background" data-name="Monotone background" class="cls-2" width="16" height="16"/>
  <path id="Icon-2" data-name="Icon" class="cls-1" d="M4.8,5.6a.8.8,0,0,1-.566-.234l-4-4A.8.8,0,0,1,1.366.235L4.8,3.669,8.235.235A.8.8,0,0,1,9.366,1.366l-4,4A.8.8,0,0,1,4.8,5.6" transform="translate(3.2 5.6)"/>
</svg>
