<svg xmlns="http://www.w3.org/2000/svg" viewBox="0 0 15.362 19.2">
  <defs>
    <style>
      .cls-1 {
        fill: #31373d;
      }
    </style>
  </defs>
  <path id="Icon" class="cls-1" d="M7.681,19.2A2.883,2.883,0,0,1,4.8,16.32a2.82,2.82,0,0,1,.176-.96H.96a.96.96,0,0,1-.678-1.639C1.92,12.082,1.92,10.519,1.92,7.68a5.765,5.765,0,0,1,4.8-5.674V.96a.96.96,0,1,1,1.92,0V2.006a5.765,5.765,0,0,1,4.8,5.674c0,2.838,0,4.4,1.638,6.041A.96.96,0,0,1,14.4,15.36H10.385a2.8,2.8,0,0,1,.175.96A2.883,2.883,0,0,1,7.681,19.2Zm0-3.84a.96.96,0,1,0,.96.96A.961.961,0,0,0,7.681,15.36Zm0-11.521a3.844,3.844,0,0,0-3.84,3.84c0,2.167,0,4.039-.949,5.76h9.576c-.947-1.722-.947-3.593-.947-5.76A3.845,3.845,0,0,0,7.681,3.84Z" transform="translate(0 0)"/>
</svg>
