<svg xmlns="http://www.w3.org/2000/svg" viewBox="0 0 12.014 15.23">
  <defs>
    <style>
      .cls-1 {
        fill: #f14742;
      }

      .cls-2 {
        fill: #fff;
      }

      .cls-3 {
        fill: #202841;
      }
    </style>
  </defs>
  <g id="_261913" data-name="261913" transform="translate(-0.29)">
    <path id="Path" class="cls-1" d="M11.188,5.594c0,4.479-5.057,8.628-5.057,8.628a.885.885,0,0,1-1.075,0S0,10.073,0,5.594a5.594,5.594,0,0,1,11.188,0Z" transform="translate(0.703 0.413)"/>
    <path id="Path-2" data-name="Path" class="cls-2" d="M2.814,5.629A2.814,2.814,0,1,1,5.629,2.814,2.818,2.818,0,0,1,2.814,5.629Z" transform="translate(3.482 3.193)"/>
    <path id="Shape" class="cls-3" d="M6.007,15.23a1.256,1.256,0,0,1-.8-.276,19.346,19.346,0,0,1-2.59-2.7A10.337,10.337,0,0,1,0,6.007a6.007,6.007,0,0,1,12.014,0A10.333,10.333,0,0,1,9.4,12.257a19.477,19.477,0,0,1-2.588,2.7A1.263,1.263,0,0,1,6.007,15.23Zm0-14.4A5.188,5.188,0,0,0,.825,6.007c0,4.174,4.705,8.142,4.906,8.309a.472.472,0,0,0,.551,0c.049-.04,4.906-4.062,4.906-8.309A5.187,5.187,0,0,0,6.007.826Z" transform="translate(0.29)"/>
    <path id="Shape-2" data-name="Shape" class="cls-3" d="M3.227,6.455A3.227,3.227,0,1,1,6.455,3.227,3.231,3.231,0,0,1,3.227,6.455Zm0-5.629a2.4,2.4,0,1,0,2.4,2.4A2.4,2.4,0,0,0,3.227.826Z" transform="translate(3.069 2.78)"/>
  </g>
</svg>
