<svg xmlns="http://www.w3.org/2000/svg" viewBox="0 0 16 22">
  <defs>
    <style>
      .cls-1 {
        fill: #7b8f9d;
        opacity: 0.7;
      }
    </style>
  </defs>
  <g id="Group_1" data-name="Group 1" transform="translate(0 2)">
    <path id="Fill_1" data-name="Fill 1" class="cls-1" d="M8.177,22H7.822A7.78,7.78,0,0,1,0,14.28V7.72A7.78,7.78,0,0,1,7.822,0h.356A7.781,7.781,0,0,1,16,7.72v6.56A7.78,7.78,0,0,1,8.177,22ZM7.822,1.293a6.534,6.534,0,0,0-4.6,1.883A6.343,6.343,0,0,0,1.31,7.72v6.56a6.364,6.364,0,0,0,1.908,4.543,6.511,6.511,0,0,0,4.6,1.883h.356a6.528,6.528,0,0,0,4.6-1.883A6.342,6.342,0,0,0,14.69,14.28V7.72a6.358,6.358,0,0,0-1.908-4.544,6.512,6.512,0,0,0-4.6-1.883Z" transform="translate(0 -2)"/>
    <path id="Fill_2" data-name="Fill 2" class="cls-1" d="M.5,0A.562.562,0,0,0,0,.608V2.392A.563.563,0,0,0,.5,3,.563.563,0,0,0,1,2.392V.608A.564.564,0,0,0,.5,0Z" transform="translate(7 5)"/>
  </g>
</svg>
