<svg xmlns="http://www.w3.org/2000/svg" viewBox="0 0 13.691 15.962">
  <defs>
    <style>
      .cls-1 {
        fill: #ffd7bf;
      }

      .cls-2 {
        fill: #4a90e2;
      }

      .cls-3 {
        fill: #202841;
      }
    </style>
  </defs>
  <g id="_356487" data-name="356487" transform="translate(-0.026)">
    <path id="Path" class="cls-1" d="M4.256,0A3.991,3.991,0,0,0,0,3.662,3.991,3.991,0,0,0,4.256,7.325c1.611,0,2.914-1.638,2.914-3.662S5.867,0,4.256,0Z" transform="translate(3.248 0.401)"/>
    <path id="Path-2" data-name="Path" class="cls-2" d="M7.016,0A6.748,6.748,0,0,0,0,6.445H12.652C12.652,2.885,9.926,0,7.016,0Z" transform="translate(0.427 9.116)"/>
    <path id="Shape" class="cls-3" d="M3.956,7.914A3.957,3.957,0,1,1,7.914,3.956,3.961,3.961,0,0,1,3.956,7.914ZM3.956.8A3.155,3.155,0,1,0,7.112,3.956,3.158,3.158,0,0,0,3.956.8Z" transform="translate(2.915)"/>
    <path id="Path-3" data-name="Path" class="cls-3" d="M6.846.8a6.051,6.051,0,0,1,6.031,5.643H2.212v.8H13.29a.4.4,0,0,0,.4-.4A6.846,6.846,0,0,0,0,6.846a.4.4,0,0,0,.4.4H2.212v-.8H.815A6.052,6.052,0,0,1,6.846.8Z" transform="translate(0.026 8.715)"/>
    <path id="Path-4" data-name="Path" class="cls-3" d="M1.47,1.291A1.818,1.818,0,0,0,2.842.664.4.4,0,0,0,2.237.138,1.016,1.016,0,0,1,1.47.489,1.016,1.016,0,0,1,.7.138.4.4,0,1,0,.1.664,1.818,1.818,0,0,0,1.47,1.291Z" transform="translate(5.401 4.484)"/>
  </g>
</svg>
