<svg id="_260251" data-name="260251" xmlns="http://www.w3.org/2000/svg" viewBox="0 0 16 16">
  <defs>
    <style>
      .cls-1 {
        fill: #f7b239;
      }

      .cls-2 {
        fill: #fff;
      }

      .cls-3 {
        fill: #a81004;
      }

      .cls-4 {
        fill: #f95428;
      }

      .cls-5 {
        fill: #202841;
      }
    </style>
  </defs>
  <circle id="Oval" class="cls-1" cx="7.714" cy="7.714" r="7.714" transform="translate(0.286 0.286)"/>
  <path id="Path" class="cls-2" d="M0,0H7.777a3.886,3.886,0,0,1-.2,1.248H.2A3.885,3.885,0,0,1,0,0Z" transform="translate(3.997 8.554)"/>
  <path id="Path-2" data-name="Path" class="cls-3" d="M0,0H7.368A3.9,3.9,0,0,1,5.961,1.9a1.563,1.563,0,0,0-2.277-.457A1.563,1.563,0,0,0,1.407,1.9,3.9,3.9,0,0,1,0,0Z" transform="translate(4.202 9.802)"/>
  <path id="Path-3" data-name="Path" class="cls-4" d="M3.21,0A1.561,1.561,0,0,1,4.554.766,3.869,3.869,0,0,1,2.277,1.5,3.869,3.869,0,0,1,0,.766,1.563,1.563,0,0,1,2.277.309,1.555,1.555,0,0,1,3.21,0Z" transform="translate(5.609 10.94)"/>
  <path id="Shape" class="cls-5" d="M8,16a8,8,0,1,1,8-8A8.009,8.009,0,0,1,8,16ZM8,.572A7.428,7.428,0,1,0,15.428,8,7.437,7.437,0,0,0,8,.572Z"/>
  <path id="Path-4" data-name="Path" class="cls-5" d="M1.058,2.116A1.058,1.058,0,1,0,0,1.058,1.059,1.059,0,0,0,1.058,2.116Z" transform="translate(3.527 5.343)"/>
  <path id="Path-5" data-name="Path" class="cls-5" d="M1.058,0A1.058,1.058,0,1,0,2.116,1.058,1.059,1.059,0,0,0,1.058,0Z" transform="translate(10.357 5.343)"/>
  <path id="Shape-2" data-name="Shape" class="cls-5" d="M4.174,4.46A4.142,4.142,0,0,1,1.73,3.669,4.154,4.154,0,0,1,.22,1.625,4.164,4.164,0,0,1,0,.286.287.287,0,0,1,.286,0H8.063a.287.287,0,0,1,.286.286,4.159,4.159,0,0,1-.22,1.34A4.15,4.15,0,0,1,6.62,3.669,4.143,4.143,0,0,1,4.174,4.46Zm-.932-1.5a1.279,1.279,0,0,0-.935.409,3.588,3.588,0,0,0,1.867.522,3.593,3.593,0,0,0,1.868-.522,1.287,1.287,0,0,0-.936-.409,1.267,1.267,0,0,0-.761.252A.286.286,0,0,1,4,3.21,1.267,1.267,0,0,0,3.242,2.958Zm1.865-.572a1.849,1.849,0,0,1,1.4.644A3.549,3.549,0,0,0,7.435,1.82H.915A3.55,3.55,0,0,0,1.841,3.03a1.848,1.848,0,0,1,2.334-.392A1.85,1.85,0,0,1,5.107,2.386ZM.583.571h0A3.611,3.611,0,0,0,.7,1.248H7.647A3.64,3.64,0,0,0,7.766.572H.583Z" transform="translate(3.711 8.268)"/>
  <g id="Group" transform="translate(4.406 5.969)">
    <circle id="Oval-2" data-name="Oval" class="cls-2" cx="0.286" cy="0.286" r="0.286" transform="translate(0.01 0.002)"/>
    <circle id="Oval-3" data-name="Oval" class="cls-2" cx="0.286" cy="0.286" r="0.286" transform="translate(6.834 0.002)"/>
  </g>
</svg>
