<svg xmlns="http://www.w3.org/2000/svg" viewBox="0 0 24.728 25.719">
  <defs>
    <style>
      .cls-1 {
        fill: #687178;
      }
    </style>
  </defs>
  <path id="time" class="cls-1" d="M12.364,25.719A12.633,12.633,0,0,1,0,12.86,12.634,12.634,0,0,1,12.364,0,12.634,12.634,0,0,1,24.728,12.86,12.633,12.633,0,0,1,12.364,25.719Zm0-23.741A10.69,10.69,0,0,0,1.9,12.86,10.69,10.69,0,0,0,12.364,23.741,10.69,10.69,0,0,0,22.826,12.86,10.69,10.69,0,0,0,12.364,1.978Zm0,11.871A.91.91,0,0,1,12,13.772a.988.988,0,0,1-.583-.912V4.051a.952.952,0,1,1,1.9,0V10.5l3.319-3.389a.926.926,0,0,1,1.345.013,1.021,1.021,0,0,1-.013,1.4l-4.936,5.04A.929.929,0,0,1,12.364,13.849Z" transform="translate(0 0)"/>
</svg>
